<?xml version="1.0" encoding="UTF-8" standalone="no"?>
<!-- Created with Inkscape (http://www.inkscape.org/) -->

<svg
   xmlns:dc="http://purl.org/dc/elements/1.1/"
   xmlns:cc="http://creativecommons.org/ns#"
   xmlns:rdf="http://www.w3.org/1999/02/22-rdf-syntax-ns#"
   xmlns:svg="http://www.w3.org/2000/svg"
   xmlns="http://www.w3.org/2000/svg"
   xmlns:sodipodi="http://sodipodi.sourceforge.net/DTD/sodipodi-0.dtd"
   xmlns:inkscape="http://www.inkscape.org/namespaces/inkscape"
   width="64px"
   height="64px"
   id="svg3416"
   version="1.1"
   inkscape:version="0.48.5 r10040"
   sodipodi:docname="green_world.svg">
  <defs
     id="defs3418" />
  <sodipodi:namedview
     id="base"
     pagecolor="#ffffff"
     bordercolor="#666666"
     borderopacity="1.0"
     inkscape:pageopacity="0.0"
     inkscape:pageshadow="2"
     inkscape:zoom="7.7781746"
     inkscape:cx="30.721915"
     inkscape:cy="46.639493"
     inkscape:current-layer="layer1"
     showgrid="true"
     inkscape:document-units="px"
     inkscape:grid-bbox="true"
     inkscape:window-width="1920"
     inkscape:window-height="1025"
     inkscape:window-x="-2"
     inkscape:window-y="-3"
     inkscape:window-maximized="1" />
  <metadata
     id="metadata3421">
    <rdf:RDF>
      <cc:Work
         rdf:about="">
        <dc:format>image/svg+xml</dc:format>
        <dc:type
           rdf:resource="http://purl.org/dc/dcmitype/StillImage" />
        <dc:title></dc:title>
      </cc:Work>
    </rdf:RDF>
  </metadata>
  <g
     id="layer1"
     inkscape:label="Layer 1"
     inkscape:groupmode="layer">
    <path
       d="m 32.045456,21.340954 c -17.644641,0 -32.00000188,9.57873 -32.00000188,21.35226 0,11.77354 14.35536188,21.35226 32.00000188,21.35226 17.644639,0 31.999999,-9.57872 31.999999,-21.35226 0,-11.77353 -14.35406,-21.35226 -31.999999,-21.35226 z m 2.171289,14.9345 c 4.60008,-0.076 8.77186,-0.34192 12.3497,-0.67346 0.81261,2.01346 1.19951,3.96393 1.26162,5.82891 h -13.61132 v -5.15545 z m 0,-2.62479 v -8.78267 c 1.5243,0.082 3.0059,0.25473 4.44869,0.5008 3.04989,2.60924 5.22248,5.19085 6.66914,7.69822 -3.26728,0.28319 -7.0224,0.51024 -11.11783,0.58365 z m -3.881919,0.0189 c -3.42516,-0.0241 -7.03664,-0.16749 -10.75941,-0.47315 1.45831,-2.61268 3.691709,-5.30049 6.8943,-8.00733 1.25645,-0.17785 2.550429,-0.28146 3.86511,-0.33672 v 8.8172 z m 0,2.61701 v 5.14423 h -13.10797 c 0.0492,-1.8313 0.40372,-3.74118 1.161989,-5.7089 4.15366,0.36954 8.15851,0.53531 11.945981,0.56467 z m -17.008011,5.14423 H 5.3184041 c 0.26397,-2.50908 1.29397,-4.87658 2.95414,-6.99712 2.0988309,0.35312 4.1782509,0.64064 6.2330819,0.88241 -0.784151,2.10761 -1.1387,4.15216 -1.178811,6.11471 z m 0.11516,2.59025 c 0.26268,2.20344 0.898021,4.26872 1.735221,6.16307 -2.22952,0.25124 -4.493971,0.56897 -6.7739619,0.94888 -1.72875,-2.14645 -2.79757,-4.5571 -3.08095,-7.11195 h 8.1196919 z m 3.907811,0 h 12.98504 v 5.27633 c -3.58561,0.0285 -7.37307,0.18305 -11.291231,0.51199 -0.81003,-1.76998 -1.42984,-3.71182 -1.69381,-5.78832 z m 12.98504,7.89593 v 8.61774 c -1.16329,-0.0493 -2.31234,-0.13469 -3.43033,-0.28062 l 0.20962,-0.12085 c -0.0919,-0.0716 -3.87675,-3.06255 -6.740311,-7.8096 3.440681,-0.26249 6.780421,-0.38422 9.961021,-0.40667 z m 3.881919,0.0189 c 3.79652,0.0682 7.29284,0.26851 10.38674,0.52322 -2.7924,4.50705 -6.42718,7.39085 -6.79337,7.67491 l 0.0401,0.0232 c -1.18399,0.17529 -2.39773,0.29356 -3.63348,0.36007 v -8.58142 z m 0,-2.62393 v -5.29007 h 13.50004 c -0.26009,2.12399 -0.89414,4.1107 -1.73781,5.9092 -3.44456,-0.30652 -7.41577,-0.5474 -11.76223,-0.61908 z m 17.2668,-5.29099 h 7.28508 c -0.28209,2.54448 -1.34444,4.94477 -3.06025,7.08432 -1.57994,-0.24694 -3.61148,-0.53099 -6.01569,-0.80127 0.86438,-1.92628 1.52301,-4.03215 1.79086,-6.28305 z m 0.11517,-2.59025 c -0.0414,-1.99795 -0.41278,-4.08137 -1.2254,-6.22783 2.16482,-0.25382 4.02167,-0.51545 5.46575,-0.74254 1.64853,2.11365 2.67206,4.47078 2.93474,6.97037 h -7.17509 z m 2.04059,-9.31195 c -1.25645,0.17962 -2.74581,0.37301 -4.4241,0.56123 -0.97824,-1.82783 -2.29551,-3.6885 -4.0152,-5.56903 3.32034,1.25283 6.18908,2.96756 8.4393,5.0078 z m -33.543709,-5.42656 c -1.95649,2.07046 -3.39798,4.11764 -4.455151,6.12508 -1.71452,-0.19342 -3.44586,-0.42654 -5.18755,-0.69852 2.51678,-2.28285 5.815121,-4.1487 9.642701,-5.42656 z m -9.453781,26.74345 c 1.950021,-0.30133 3.885811,-0.54915 5.800891,-0.75292 1.50878,2.63083 3.29834,4.80663 4.782529,6.37459 -4.211889,-1.24417 -7.841489,-3.19463 -10.58342,-5.62167 z m 33.41432,5.2392 c 1.38325,-1.50321 2.97614,-3.49252 4.34775,-5.85828 1.93061,0.20549 3.62184,0.4222 5.04133,0.62338 -2.47796,2.19222 -5.68443,3.98985 -9.38908,5.2349 z"
       id="path47"
       inkscape:export-filename="/home/azael/Downloads/ecodesignelements/path49.png"
       inkscape:export-xdpi="90"
       inkscape:export-ydpi="90"
       inkscape:connector-curvature="0"
       style="fill:#8cc63f" />
    <path
       d="m 57.043755,0.04567456 c 0,0 -1.02612,3.83702004 -14.17032,6.71565994 -10.900439,2.3856106 -9.93902,8.3517995 -9.29203,10.3195195 1.63817,-1.510979 3.61666,-2.080829 3.61666,-2.080829 -2.43009,1.27353 -3.3074,2.470229 -3.41092,2.620489 10e-4,0.002 10e-4,0.003 10e-4,0.004 -0.79838,0.91607 -1.632989,2.01953 -2.313619,3.24386 -2.40162,-4.24974 -5.36482,-6.33662 -5.36482,-6.33662 l -4.06179,1.402181 c 5.882409,1.681939 8.40437,7.522949 8.40437,7.522949 l 2.251509,-0.0811 c 0,0 10e-4,-2.21725 1.81157,-5.44385 10.51096,3.07119 17.65758,-3.43897 20.47198,-7.06185 2.8765,-3.6988695 2.05612,-10.82464944 2.05612,-10.82464944 z"
       id="path49"
       inkscape:export-xdpi="90"
       inkscape:export-ydpi="90"
       inkscape:connector-curvature="0"
       style="fill:#009245" />
  </g>
</svg>
